# This file uses centimeters as units for non-parametric coordinates.

mtllib Wood Plank.mtl
g default
v -4.297032 0.036213 0.500000
v -2.808502 0.036213 0.500000
v -4.297032 6.768959 -0.988755
v -2.808502 6.768959 -0.988755
v -4.297032 5.967808 -1.419311
v -2.808502 5.967808 -1.419311
v -4.297032 0.036213 -0.500000
v -2.808502 0.036213 -0.500000
vt 0.481931 0.266526
vt 0.453433 0.136159
vt 0.613885 0.885013
vt 0.480439 0.884691
vt 0.667229 0.823346
vt 0.427393 0.822768
vt 0.702864 0.286415
vt 0.394349 0.285671
vt 0.261156 0.293865
vt 0.365852 0.155304
vt 0.615376 0.266848
vt 0.326048 0.909584
vt 0.294199 0.830962
vt 0.379095 0.971507
vn 0.000000 0.215906 0.976414
vn 0.000000 0.215906 0.976414
vn 0.000000 0.215906 0.976414
vn 0.000000 0.215906 0.976414
vn 0.000000 0.473389 -0.880853
vn 0.000000 0.473389 -0.880853
vn 0.000000 0.473389 -0.880853
vn 0.000000 0.473389 -0.880853
vn 0.000000 -0.153157 -0.988202
vn 0.000000 -0.153157 -0.988202
vn 0.000000 -0.153157 -0.988202
vn 0.000000 -0.153157 -0.988202
vn 0.000000 -1.000000 0.000000
vn 0.000000 -1.000000 0.000000
vn 0.000000 -1.000000 0.000000
vn 0.000000 -1.000000 0.000000
vn 1.000000 0.000000 0.000000
vn 1.000000 0.000000 0.000000
vn 1.000000 0.000000 0.000000
vn 1.000000 0.000000 0.000000
vn -1.000000 -0.000000 0.000000
vn -1.000000 -0.000000 0.000000
vn -1.000000 -0.000000 0.000000
vn -1.000000 -0.000000 0.000000
s off
g pCube2
usemtl initialShadingGroup
f 1/1/1 2/11/2 4/3/3 3/4/4
f 3/4/5 4/14/6 6/12/7 5/6/8
f 5/6/9 6/13/10 8/9/11 7/8/12
f 7/8/13 8/10/14 2/2/15 1/1/16
f 2/11/17 8/7/18 6/5/19 4/3/20
f 7/8/21 1/1/22 3/4/23 5/6/24
g default
v -2.848175 0.036213 0.500000
v -1.359644 0.036213 0.500000
v -2.848175 5.622299 -1.330531
v -1.359644 5.622299 -1.330531
v -2.848175 4.821147 -1.761086
v -1.359644 4.821147 -1.761086
v -2.848175 0.036213 -0.500000
v -1.359644 0.036213 -0.500000
vt 0.481931 0.266526
vt 0.453433 0.136159
vt 0.613885 0.885013
vt 0.480439 0.884691
vt 0.667229 0.823346
vt 0.427393 0.822768
vt 0.702864 0.286415
vt 0.394349 0.285671
vt 0.261156 0.293865
vt 0.365852 0.155304
vt 0.615376 0.266848
vt 0.326048 0.909584
vt 0.294199 0.830962
vt 0.379095 0.971507
vn 0.000000 0.311401 0.950279
vn 0.000000 0.311401 0.950279
vn 0.000000 0.311401 0.950279
vn 0.000000 0.311401 0.950279
vn 0.000000 0.473389 -0.880854
vn 0.000000 0.473389 -0.880854
vn 0.000000 0.473389 -0.880854
vn 0.000000 0.473389 -0.880854
vn 0.000000 -0.254851 -0.966980
vn 0.000000 -0.254851 -0.966980
vn 0.000000 -0.254851 -0.966980
vn 0.000000 -0.254851 -0.966980
vn 0.000000 -1.000000 0.000000
vn 0.000000 -1.000000 0.000000
vn 0.000000 -1.000000 0.000000
vn 0.000000 -1.000000 0.000000
vn 1.000000 -0.000000 0.000000
vn 1.000000 -0.000000 0.000000
vn 1.000000 -0.000000 0.000000
vn 1.000000 -0.000000 0.000000
vn -1.000000 0.000000 0.000000
vn -1.000000 0.000000 0.000000
vn -1.000000 0.000000 0.000000
vn -1.000000 0.000000 0.000000
s off
g pCube3
usemtl initialShadingGroup
f 9/15/25 10/25/26 12/17/27 11/18/28
f 11/18/29 12/28/30 14/26/31 13/20/32
f 13/20/33 14/27/34 16/23/35 15/22/36
f 15/22/37 16/24/38 10/16/39 9/15/40
f 10/25/41 16/21/42 14/19/43 12/17/44
f 15/22/45 9/15/46 11/18/47 13/20/48
g default
v -1.374945 0.036213 0.500000
v 0.113586 0.036213 0.500000
v -1.374945 6.293503 -0.689507
v 0.113586 6.293503 -0.689507
v -1.374945 5.492352 -1.120062
v 0.113586 5.492352 -1.120062
v -1.374945 0.036213 -0.500000
v 0.113586 0.036213 -0.500000
vt 0.481931 0.266526
vt 0.453433 0.136159
vt 0.613885 0.885013
vt 0.480439 0.884691
vt 0.667229 0.823346
vt 0.427393 0.822768
vt 0.702864 0.286415
vt 0.394349 0.285671
vt 0.261156 0.293865
vt 0.365852 0.155304
vt 0.615376 0.266848
vt 0.326048 0.909584
vt 0.294199 0.830962
vt 0.379095 0.971507
vn 0.000000 0.186755 0.982407
vn 0.000000 0.186755 0.982407
vn 0.000000 0.186755 0.982407
vn 0.000000 0.186755 0.982407
vn 0.000000 0.473389 -0.880854
vn 0.000000 0.473389 -0.880854
vn 0.000000 0.473389 -0.880854
vn 0.000000 0.473389 -0.880854
vn 0.000000 -0.112918 -0.993604
vn 0.000000 -0.112918 -0.993604
vn 0.000000 -0.112918 -0.993604
vn 0.000000 -0.112918 -0.993604
vn 0.000000 -1.000000 0.000000
vn 0.000000 -1.000000 0.000000
vn 0.000000 -1.000000 0.000000
vn 0.000000 -1.000000 0.000000
vn 1.000000 0.000000 0.000000
vn 1.000000 0.000000 0.000000
vn 1.000000 0.000000 0.000000
vn 1.000000 0.000000 0.000000
vn -1.000000 0.000000 0.000000
vn -1.000000 0.000000 0.000000
vn -1.000000 0.000000 0.000000
vn -1.000000 0.000000 0.000000
s off
g pCube4
usemtl initialShadingGroup
f 17/29/49 18/39/50 20/31/51 19/32/52
f 19/32/53 20/42/54 22/40/55 21/34/56
f 21/34/57 22/41/58 24/37/59 23/36/60
f 23/36/61 24/38/62 18/30/63 17/29/64
f 18/39/65 24/35/66 22/33/67 20/31/68
f 23/36/69 17/29/70 19/32/71 21/34/72
g default
v 0.017996 0.036213 0.500000
v 1.506527 0.036213 0.500000
v 0.017996 5.825902 -0.936632
v 1.506527 5.825902 -0.936632
v 0.017996 5.024751 -1.367188
v 1.506527 5.024751 -1.367188
v 0.017996 0.036213 -0.500000
v 1.506527 0.036213 -0.500000
vt 0.481931 0.266526
vt 0.453433 0.136159
vt 0.613885 0.885013
vt 0.480439 0.884691
vt 0.667229 0.823346
vt 0.427393 0.822768
vt 0.702864 0.286415
vt 0.394349 0.285671
vt 0.261156 0.293865
vt 0.365852 0.155304
vt 0.615376 0.266848
vt 0.326048 0.909584
vt 0.294199 0.830962
vt 0.379095 0.971507
vn 0.000000 0.240833 0.970567
vn 0.000000 0.240833 0.970567
vn 0.000000 0.240833 0.970567
vn 0.000000 0.240833 0.970567
vn 0.000000 0.473389 -0.880854
vn 0.000000 0.473389 -0.880854
vn 0.000000 0.473389 -0.880854
vn 0.000000 0.473389 -0.880854
vn 0.000000 -0.171268 -0.985225
vn 0.000000 -0.171268 -0.985225
vn 0.000000 -0.171268 -0.985225
vn 0.000000 -0.171268 -0.985225
vn 0.000000 -1.000000 0.000000
vn 0.000000 -1.000000 0.000000
vn 0.000000 -1.000000 0.000000
vn 0.000000 -1.000000 0.000000
vn 1.000000 0.000000 0.000000
vn 1.000000 0.000000 0.000000
vn 1.000000 0.000000 0.000000
vn 1.000000 0.000000 0.000000
vn -1.000000 -0.000000 0.000000
vn -1.000000 -0.000000 0.000000
vn -1.000000 -0.000000 0.000000
vn -1.000000 -0.000000 0.000000
s off
g pCube5
usemtl initialShadingGroup
f 25/43/73 26/53/74 28/45/75 27/46/76
f 27/46/77 28/56/78 30/54/79 29/48/80
f 29/48/81 30/55/82 32/51/83 31/50/84
f 31/50/85 32/52/86 26/44/87 25/43/88
f 26/53/89 32/49/90 30/47/91 28/45/92
f 31/50/93 25/43/94 27/46/95 29/48/96
g default
v 1.475253 0.036213 0.500000
v 2.963784 0.036213 0.500000
v 1.475253 6.524757 -1.931730
v 2.963784 6.524757 -1.931730
v 1.475253 5.723606 -2.362285
v 2.963784 5.723606 -2.362285
v 1.475253 0.036213 -0.500000
v 2.963784 0.036213 -0.500000
vt 0.481931 0.266526
vt 0.453433 0.136159
vt 0.613885 0.885013
vt 0.480439 0.884691
vt 0.667229 0.823346
vt 0.427393 0.822768
vt 0.702864 0.286415
vt 0.394349 0.285671
vt 0.261156 0.293865
vt 0.365852 0.155304
vt 0.615376 0.266848
vt 0.326048 0.909584
vt 0.294199 0.830962
vt 0.379095 0.971507
vn 0.000000 0.350937 0.936399
vn 0.000000 0.350937 0.936399
vn 0.000000 0.350937 0.936399
vn 0.000000 0.350937 0.936399
vn 0.000000 0.473389 -0.880854
vn 0.000000 0.473389 -0.880854
vn 0.000000 0.473389 -0.880854
vn 0.000000 0.473389 -0.880854
vn 0.000000 -0.311183 -0.950350
vn 0.000000 -0.311183 -0.950350
vn 0.000000 -0.311183 -0.950350
vn 0.000000 -0.311183 -0.950350
vn 0.000000 -1.000000 0.000000
vn 0.000000 -1.000000 0.000000
vn 0.000000 -1.000000 0.000000
vn 0.000000 -1.000000 0.000000
vn 1.000000 0.000000 0.000000
vn 1.000000 0.000000 0.000000
vn 1.000000 0.000000 0.000000
vn 1.000000 0.000000 0.000000
vn -1.000000 0.000000 0.000000
vn -1.000000 0.000000 0.000000
vn -1.000000 0.000000 0.000000
vn -1.000000 0.000000 0.000000
s off
g pCube6
usemtl initialShadingGroup
f 33/57/97 34/67/98 36/59/99 35/60/100
f 35/60/101 36/70/102 38/68/103 37/62/104
f 37/62/105 38/69/106 40/65/107 39/64/108
f 39/64/109 40/66/110 34/58/111 33/57/112
f 34/67/113 40/63/114 38/61/115 36/59/116
f 39/64/117 33/57/118 35/60/119 37/62/120
g default
v 2.890043 0.036213 0.500000
v 4.378574 0.036213 0.500000
v 2.890043 5.217572 -0.713566
v 4.378574 5.217572 -0.713566
v 2.890043 4.416421 -1.144122
v 4.378574 4.416421 -1.144122
v 2.890043 0.036213 -0.500000
v 4.378574 0.036213 -0.500000
vt 0.481931 0.266526
vt 0.453433 0.136159
vt 0.613885 0.885013
vt 0.480439 0.884691
vt 0.667229 0.823346
vt 0.427393 0.822768
vt 0.702864 0.286415
vt 0.394349 0.285671
vt 0.261156 0.293865
vt 0.365852 0.155304
vt 0.615376 0.266848
vt 0.326048 0.909584
vt 0.294199 0.830962
vt 0.379095 0.971507
vn 0.000000 0.228046 0.973650
vn 0.000000 0.228046 0.973650
vn 0.000000 0.228046 0.973650
vn 0.000000 0.228046 0.973650
vn 0.000000 0.473389 -0.880854
vn 0.000000 0.473389 -0.880854
vn 0.000000 0.473389 -0.880854
vn 0.000000 0.473389 -0.880854
vn 0.000000 -0.145488 -0.989360
vn 0.000000 -0.145488 -0.989360
vn 0.000000 -0.145488 -0.989360
vn 0.000000 -0.145488 -0.989360
vn 0.000000 -1.000000 0.000000
vn 0.000000 -1.000000 0.000000
vn 0.000000 -1.000000 0.000000
vn 0.000000 -1.000000 0.000000
vn 1.000000 0.000000 0.000000
vn 1.000000 0.000000 0.000000
vn 1.000000 0.000000 0.000000
vn 1.000000 0.000000 0.000000
vn -1.000000 0.000000 0.000000
vn -1.000000 0.000000 0.000000
vn -1.000000 0.000000 0.000000
vn -1.000000 0.000000 0.000000
s off
g pCube7
usemtl initialShadingGroup
f 41/71/121 42/81/122 44/73/123 43/74/124
f 43/74/125 44/84/126 46/82/127 45/76/128
f 45/76/129 46/83/130 48/79/131 47/78/132
f 47/78/133 48/80/134 42/72/135 41/71/136
f 42/81/137 48/77/138 46/75/139 44/73/140
f 47/78/141 41/71/142 43/74/143 45/76/144
