# This file uses centimeters as units for non-parametric coordinates.

mtllib Card.mtl
g default
v -0.586160 0.154583 -0.010147
v -0.349316 -0.082260 -0.010397
v -0.422505 -0.070668 -0.010385
v -0.488530 -0.037027 -0.010349
v -0.540927 0.015370 -0.010294
v -0.574568 0.081395 -0.010224
v -0.586160 0.154563 0.008648
v -0.574568 0.081375 0.008571
v -0.540927 0.015350 0.008501
v -0.488530 -0.037047 0.008446
v -0.422505 -0.070688 0.008410
v -0.349316 -0.082280 0.008398
v 0.586160 0.154583 -0.010147
v 0.574568 0.081395 -0.010224
v 0.540927 0.015370 -0.010294
v 0.488530 -0.037027 -0.010349
v 0.422505 -0.070668 -0.010385
v 0.349316 -0.082260 -0.010397
v 0.586160 0.154563 0.008648
v 0.349316 -0.082280 0.008398
v 0.422505 -0.070688 0.008410
v 0.488530 -0.037047 0.008446
v 0.540927 0.015350 0.008501
v 0.574568 0.081375 0.008571
v -0.422505 1.800709 0.010385
v -0.488530 1.767068 0.010349
v -0.540927 1.714671 0.010294
v -0.574568 1.648646 0.010224
v -0.586160 1.575458 0.010147
v -0.349316 1.812301 0.010397
v -0.586160 1.575478 -0.008648
v -0.574568 1.648666 -0.008571
v -0.540927 1.714691 -0.008501
v -0.488530 1.767088 -0.008446
v -0.422505 1.800729 -0.008410
v -0.349316 1.812321 -0.008398
v 0.574568 1.648646 0.010224
v 0.540927 1.714671 0.010294
v 0.488530 1.767068 0.010349
v 0.422505 1.800709 0.010385
v 0.349316 1.812301 0.010397
v 0.586160 1.575458 0.010147
v 0.586160 1.575478 -0.008648
v 0.349316 1.812321 -0.008398
v 0.422505 1.800729 -0.008410
v 0.488530 1.767088 -0.008446
v 0.540927 1.714691 -0.008501
v 0.574568 1.648666 -0.008571
vt 0.109254 0.005381
vt 0.245218 0.944350
vt 0.610226 0.005485
vt 0.245214 0.950888
vt 0.896545 0.780587
vt 0.002201 0.950751
vt 0.393486 0.781250
vt 0.997658 0.844697
vt 0.491844 0.103111
vt 0.002645 0.850672
vt 0.513693 0.683887
vt 0.997215 0.944775
vt 0.010896 0.683521
vt 0.245661 0.844272
vt 0.993077 0.102186
vt 0.245658 0.850809
vt 0.988318 0.072239
vt 0.868782 0.844624
vt 0.974536 0.045230
vt 0.868778 0.851161
vt 0.953083 0.023801
vt 0.374534 0.850882
vt 0.926058 0.010050
vt 0.374538 0.844345
vt 0.580280 0.010246
vt 0.868339 0.944703
vt 0.553271 0.024027
vt 0.868335 0.951240
vt 0.531842 0.045480
vt 0.374090 0.950961
vt 0.518091 0.072505
vt 0.374094 0.944423
vt 0.015576 0.713480
vt 0.348315 0.950946
vt 0.029285 0.740526
vt 0.348319 0.944409
vt 0.050680 0.762013
vt 0.322540 0.950932
vt 0.077668 0.775836
vt 0.322544 0.944394
vt 0.423445 0.776571
vt 0.296765 0.950917
vt 0.450491 0.762862
vt 0.296768 0.944379
vt 0.471978 0.741467
vt 0.270989 0.950903
vt 0.485801 0.714479
vt 0.270993 0.944365
vt 0.971879 0.851220
vt 0.490608 0.684540
vt 0.971883 0.844682
vt 0.946104 0.851205
vt 0.946108 0.844667
vt 0.920329 0.851191
vt 0.920332 0.844653
vt 0.107606 0.780643
vt 0.894554 0.851176
vt 0.894557 0.844639
vt 0.894114 0.944717
vt 0.894110 0.951255
vt 0.919889 0.944732
vt 0.487164 0.073153
vt 0.473456 0.046106
vt 0.452060 0.024620
vt 0.425073 0.010796
vt 0.395134 0.005989
vt 0.919885 0.951269
vt 0.079295 0.010061
vt 0.052249 0.023770
vt 0.030762 0.045165
vt 0.016939 0.072153
vt 0.012132 0.102092
vt 0.945665 0.944746
vt 0.518453 0.713832
vt 0.532235 0.740842
vt 0.553688 0.762271
vt 0.580713 0.776021
vt 0.610664 0.780748
vt 0.945661 0.951284
vt 0.926491 0.775826
vt 0.953500 0.762045
vt 0.974929 0.740592
vt 0.988680 0.713567
vt 0.993406 0.683615
vt 0.971440 0.944761
vt 0.513365 0.102456
vt 0.971436 0.951298
vt 0.271437 0.844286
vt 0.271433 0.850824
vt 0.297212 0.844301
vt 0.297208 0.850839
vt 0.896107 0.005324
vt 0.322987 0.844316
vt 0.322984 0.850853
vt 0.348762 0.844330
vt 0.348759 0.850868
vt 0.997655 0.851234
vt 0.002205 0.944213
vt 0.997211 0.951313
vt 0.002649 0.844135
vn -0.015017 -0.999887 -0.001055
vn -0.015017 -0.999887 -0.001055
vn 0.015017 -0.999887 -0.001055
vn 0.015017 -0.999887 -0.001055
vn -0.015017 0.999887 0.001055
vn -0.015017 0.999887 0.001055
vn 0.015017 0.999887 0.001055
vn 0.015017 0.999887 0.001055
vn 0.999970 -0.007758 -0.000008
vn 0.999970 -0.007758 -0.000008
vn 0.999970 0.007758 0.000008
vn 0.999970 0.007758 0.000008
vn -0.999970 0.007758 0.000008
vn -0.999970 0.007758 0.000008
vn -0.999970 -0.007758 -0.000008
vn -0.999970 -0.007758 -0.000008
vn -0.951056 -0.309017 -0.000326
vn -0.951056 -0.309017 -0.000326
vn -0.809018 -0.587784 -0.000620
vn -0.809018 -0.587784 -0.000620
vn -0.587785 -0.809016 -0.000854
vn -0.587785 -0.809016 -0.000854
vn -0.309016 -0.951056 -0.001003
vn -0.309016 -0.951056 -0.001003
vn 0.309016 -0.951056 -0.001003
vn 0.309016 -0.951056 -0.001003
vn 0.587785 -0.809016 -0.000854
vn 0.587785 -0.809016 -0.000854
vn 0.809018 -0.587784 -0.000620
vn 0.809018 -0.587784 -0.000620
vn 0.951056 -0.309017 -0.000326
vn 0.951056 -0.309017 -0.000326
vn -0.951056 0.309017 0.000326
vn -0.951056 0.309017 0.000326
vn -0.809018 0.587784 0.000620
vn -0.809018 0.587784 0.000620
vn -0.587785 0.809016 0.000854
vn -0.587785 0.809016 0.000854
vn -0.309016 0.951056 0.001003
vn -0.309016 0.951056 0.001003
vn 0.309016 0.951056 0.001003
vn 0.309016 0.951056 0.001003
vn 0.587785 0.809016 0.000854
vn 0.587785 0.809016 0.000854
vn 0.809018 0.587784 0.000620
vn 0.809018 0.587784 0.000620
vn 0.951056 0.309017 0.000326
vn 0.951056 0.309017 0.000326
vn 0.000000 -0.001055 0.999999
vn 0.000000 -0.001055 0.999999
vn 0.000000 -0.001055 0.999999
vn 0.000000 -0.001055 0.999999
vn 0.000000 -0.001055 0.999999
vn 0.000000 -0.001055 0.999999
vn 0.000000 -0.001055 0.999999
vn 0.000000 -0.001055 0.999999
vn 0.000000 -0.001055 0.999999
vn 0.000000 -0.001055 0.999999
vn 0.000000 -0.001055 0.999999
vn 0.000000 -0.001055 0.999999
vn 0.000000 -0.001055 0.999999
vn 0.000000 -0.001055 0.999999
vn 0.000000 -0.001055 0.999999
vn 0.000000 -0.001055 0.999999
vn 0.000000 -0.001055 0.999999
vn 0.000000 -0.001055 0.999999
vn 0.000000 -0.001055 0.999999
vn 0.000000 -0.001055 0.999999
vn 0.000000 -0.001055 0.999999
vn 0.000000 -0.001055 0.999999
vn 0.000000 -0.001055 0.999999
vn 0.000000 -0.001055 0.999999
vn 0.000000 0.001055 -0.999999
vn 0.000000 0.001055 -0.999999
vn 0.000000 0.001055 -0.999999
vn 0.000000 0.001055 -0.999999
vn 0.000000 0.001055 -0.999999
vn 0.000000 0.001055 -0.999999
vn 0.000000 0.001055 -0.999999
vn 0.000000 0.001055 -0.999999
vn 0.000000 0.001055 -0.999999
vn 0.000000 0.001055 -0.999999
vn 0.000000 0.001055 -0.999999
vn 0.000000 0.001055 -0.999999
vn 0.000000 0.001055 -0.999999
vn 0.000000 0.001055 -0.999999
vn 0.000000 0.001055 -0.999999
vn 0.000000 0.001055 -0.999999
vn 0.000000 0.001055 -0.999999
vn 0.000000 0.001055 -0.999999
vn 0.000000 0.001055 -0.999999
vn 0.000000 0.001055 -0.999999
vn 0.000000 0.001055 -0.999999
vn 0.000000 0.001055 -0.999999
vn 0.000000 0.001055 -0.999999
vn 0.000000 0.001055 -0.999999
s 1
g pCube1
usemtl lambert3SG
f 12/2/1 2/4/2 18/6/3 20/98/4
f 36/10/5 30/100/6 41/14/7 44/16/8
f 19/18/9 13/20/10 43/22/11 42/24/12
f 29/26/13 31/28/14 1/30/15 7/32/16
f 1/30/15 6/34/17 8/36/18 7/32/16
f 6/34/17 5/38/19 9/40/20 8/36/18
f 5/38/19 4/42/21 10/44/22 9/40/20
f 4/42/21 3/46/23 11/48/24 10/44/22
f 3/46/23 2/4/2 12/2/1 11/48/24
f 18/97/3 17/49/25 21/51/26 20/8/4
f 17/49/25 16/52/27 22/53/28 21/51/26
f 16/52/27 15/54/29 23/55/30 22/53/28
f 15/54/29 14/57/31 24/58/32 23/55/30
f 14/57/31 13/20/10 19/18/9 24/58/32
f 29/26/13 28/59/33 32/60/34 31/28/14
f 28/59/33 27/61/35 33/67/36 32/60/34
f 27/61/35 26/73/37 34/79/38 33/67/36
f 26/73/37 25/85/39 35/87/40 34/79/38
f 25/85/39 30/12/6 36/99/5 35/87/40
f 41/14/7 40/88/41 45/89/42 44/16/8
f 40/88/41 39/90/43 46/91/44 45/89/42
f 39/90/43 38/93/45 47/94/46 46/91/44
f 38/93/45 37/95/47 48/96/48 47/94/46
f 37/95/47 42/24/12 43/22/11 48/96/48
s off
f 37/47/49 38/45/50 39/43/51 40/41/52 41/7/53 30/56/54 25/39/55 26/37/56 27/35/57 28/33/58 29/13/59 7/72/60 8/71/61 9/70/62 10/69/63 11/68/64 12/1/65 20/66/66 21/65/67 22/64/68 23/63/69 24/62/70 19/9/71 42/50/72
f 43/11/73 13/86/74 14/31/75 15/29/76 16/27/77 17/25/78 18/3/79 2/92/80 3/23/81 4/21/82 5/19/83 6/17/84 1/15/85 31/84/86 32/83/87 33/82/88 34/81/89 35/80/90 36/5/91 44/78/92 45/77/93 46/76/94 47/75/95 48/74/96
